<svg width="600" height="360" viewBox="0 0 600 360" fill="none" xmlns="http://www.w3.org/2000/svg">
  <rect width="600" height="360" rx="16" fill="#0c1220"/>
  <circle cx="300" cy="180" r="140" fill="url(#js-glow)" opacity="0.18"/>
  <defs>
    <radialGradient id="js-glow" cx="0" cy="0" r="1" gradientUnits="userSpaceOnUse" gradientTransform="translate(300 180) rotate(90) scale(140)">
      <stop stop-color="#f59e0b"/>
      <stop offset="0.6" stop-color="#eab308" stop-opacity="0.5"/>
      <stop offset="1" stop-color="#eab308" stop-opacity="0"/>
    </radialGradient>
    <linearGradient id="js-badge" x1="0" y1="0" x2="36" y2="36" gradientUnits="userSpaceOnUse">
      <stop stop-color="#facc15"/>
      <stop offset="1" stop-color="#ca8a04"/>
    </linearGradient>
  </defs>

  <!-- Left: Mini App Suite Preview Window -->
  <rect x="65" y="55" width="225" height="250" rx="10" fill="#131d33" stroke="#253754" stroke-width="1.5"/>
  <rect x="65" y="55" width="225" height="32" rx="10" fill="#0f172a"/>
  <circle cx="85" cy="71" r="4.5" fill="#ef4444"/>
  <circle cx="100" cy="71" r="4.5" fill="#f59e0b"/>
  <circle cx="115" cy="71" r="4.5" fill="#10b981"/>
  <text x="140" y="75" fill="#64748b" font-family="'JetBrains Mono', monospace" font-size="10">mini-projects.js</text>

  <!-- Weather App Mini Card -->
  <rect x="80" y="100" width="195" height="42" rx="6" fill="#1e293b" stroke="#334155" stroke-width="1"/>
  <text x="92" y="122" fill="#38bdf8" font-family="sans-serif" font-size="11" font-weight="bold">Weather App</text>
  <text x="92" y="134" fill="#94a3b8" font-family="sans-serif" font-size="8.5">Open-Meteo API • Real-Time</text>
  <rect x="220" y="110" width="45" height="20" rx="4" fill="#0284c7" opacity="0.3"/>
  <text x="242" y="124" fill="#38bdf8" font-family="sans-serif" font-size="8.5" font-weight="bold" text-anchor="middle">24°C</text>

  <!-- Stopwatch Mini Card -->
  <rect x="80" y="150" width="195" height="42" rx="6" fill="#1e293b" stroke="#334155" stroke-width="1"/>
  <text x="92" y="172" fill="#f59e0b" font-family="sans-serif" font-size="11" font-weight="bold">Precision Stopwatch</text>
  <text x="92" y="184" fill="#94a3b8" font-family="'JetBrains Mono', monospace" font-size="9">00:14:28.450</text>
  <circle cx="245" cy="171" r="8" fill="#10b981" opacity="0.2"/>
  <circle cx="245" cy="171" r="4" fill="#10b981"/>

  <!-- Calculator Mini Card -->
  <rect x="80" y="200" width="195" height="42" rx="6" fill="#1e293b" stroke="#334155" stroke-width="1"/>
  <text x="92" y="222" fill="#a855f7" font-family="sans-serif" font-size="11" font-weight="bold">Grid Calculator</text>
  <text x="92" y="234" fill="#94a3b8" font-family="sans-serif" font-size="8.5">CSS Grid • Arithmetic Engine</text>
  <text x="248" y="226" fill="#a855f7" font-family="'JetBrains Mono', monospace" font-size="12" font-weight="bold">+/-</text>

  <!-- Tech tags inside window -->
  <rect x="80" y="254" width="60" height="18" rx="4" fill="#0f172a" stroke="#f59e0b" stroke-width="0.8"/>
  <text x="110" y="266" fill="#fbbf24" font-family="'JetBrains Mono', monospace" font-size="8" font-weight="bold" text-anchor="middle">DOM API</text>

  <rect x="146" y="254" width="64" height="18" rx="4" fill="#0f172a" stroke="#38bdf8" stroke-width="0.8"/>
  <text x="178" y="266" fill="#38bdf8" font-family="'JetBrains Mono', monospace" font-size="8" font-weight="bold" text-anchor="middle">Async/Await</text>

  <rect x="216" y="254" width="59" height="18" rx="4" fill="#0f172a" stroke="#10b981" stroke-width="0.8"/>
  <text x="245.5" y="266" fill="#34d399" font-family="'JetBrains Mono', monospace" font-size="8" font-weight="bold" text-anchor="middle">13 Apps</text>

  <!-- Right: Featured Hub Card -->
  <rect x="310" y="55" width="225" height="250" rx="10" fill="#111827" stroke="#374151" stroke-width="1.5"/>
  
  <!-- JS Logo Badge -->
  <rect x="330" y="78" width="40" height="40" rx="6" fill="url(#js-badge)"/>
  <text x="350" y="105" fill="#000000" font-family="'Inter', sans-serif" font-size="20" font-weight="900" text-anchor="middle">JS</text>

  <text x="382" y="94" fill="#f8fafc" font-family="sans-serif" font-size="13" font-weight="bold">Vanilla JS Suite</text>
  <text x="382" y="109" fill="#94a3b8" font-family="sans-serif" font-size="10">13 Interactive Projects</text>

  <!-- Metric Badges -->
  <rect x="330" y="132" width="185" height="34" rx="6" fill="#1f2937"/>
  <text x="342" y="148" fill="#e2e8f0" font-family="sans-serif" font-size="9" font-weight="600">Zero Dependencies</text>
  <text x="342" y="159" fill="#64748b" font-family="sans-serif" font-size="8">Pure HTML5, CSS3 &amp; ES6+</text>

  <rect x="330" y="174" width="185" height="34" rx="6" fill="#1f2937"/>
  <text x="342" y="190" fill="#e2e8f0" font-family="sans-serif" font-size="9" font-weight="600">API Integration</text>
  <text x="342" y="201" fill="#64748b" font-family="sans-serif" font-size="8">Open-Meteo Weather API</text>

  <rect x="330" y="216" width="185" height="34" rx="6" fill="#1f2937"/>
  <text x="342" y="232" fill="#e2e8f0" font-family="sans-serif" font-size="9" font-weight="600">UI / UX Design</text>
  <text x="342" y="243" fill="#64748b" font-family="sans-serif" font-size="8">Glassmorphism, Flexbox, Grid</text>

  <!-- GitHub Button -->
  <rect x="330" y="260" width="185" height="28" rx="6" fill="#f59e0b"/>
  <text x="422.5" y="278" fill="#000000" font-family="sans-serif" font-size="10" font-weight="bold" text-anchor="middle">View 13 Mini Projects →</text>

  <text x="300" y="335" fill="#94a3b8" font-family="sans-serif" font-size="12" font-weight="600" text-anchor="middle">JavaScript Mini Projects Collection • Vanilla JS • HTML5 • CSS3</text>
</svg>
